<svg width="40" height="40" viewBox="0 0 40 40" fill="none" xmlns="http://www.w3.org/2000/svg">
<rect width="40" height="40" rx="8" fill="#E6EBF2"/>
<path d="M22.3383 16.8037L15.2133 29.1446" stroke="#0A2533" stroke-width="1.5" stroke-linecap="round" stroke-linejoin="round"/>
<path d="M20.5665 26.8944C19.2245 27.2539 17.0811 26.1811 17.0811 26.1811C17.0811 26.1811 18.4287 23.7833 19.9304 23.496C21.2565 23.2424 23.2282 24.534 23.2282 24.534C23.2282 24.534 21.9084 26.5348 20.5665 26.8944Z" stroke="#0A2533" stroke-width="1.5" stroke-linecap="round" stroke-linejoin="round"/>
<path d="M23.5679 21.6956C22.2259 22.0552 20.0826 20.9824 20.0826 20.9824C20.0826 20.9824 21.4301 18.5846 22.9319 18.2973C24.258 18.0436 26.2297 19.3353 26.2297 19.3353C26.2297 19.3353 24.9099 21.336 23.5679 21.6956Z" stroke="#0A2533" stroke-width="1.5" stroke-linecap="round" stroke-linejoin="round"/>
<path d="M25.3072 14.8435C24.6125 16.0467 22.3384 16.8037 22.3384 16.8037C22.3384 16.8037 21.5957 14.1553 22.4545 12.8903C23.2128 11.7732 25.5203 11.2923 25.5203 11.2923C25.5203 11.2923 26.0018 13.6403 25.3072 14.8435Z" stroke="#0A2533" stroke-width="1.5" stroke-linecap="round" stroke-linejoin="round"/>
<path d="M14.396 23.3318C14.7556 24.6737 16.7564 25.9936 16.7564 25.9936C16.7564 25.9936 18.1592 23.6276 17.6571 22.1835C17.2137 20.9082 15.1093 19.8464 15.1093 19.8464C15.1093 19.8464 14.0365 21.9898 14.396 23.3318Z" stroke="#0A2533" stroke-width="1.5" stroke-linecap="round" stroke-linejoin="round"/>
<path d="M17.3975 18.1333C17.7571 19.4753 19.7579 20.7951 19.7579 20.7951C19.7579 20.7951 21.1606 18.4291 20.6586 16.985C20.2152 15.7097 18.1107 14.6479 18.1107 14.6479C18.1107 14.6479 17.0379 16.7913 17.3975 18.1333Z" stroke="#0A2533" stroke-width="1.5" stroke-linecap="round" stroke-linejoin="round"/>
</svg>
