<svg width="40" height="40" viewBox="0 0 40 40" fill="none" xmlns="http://www.w3.org/2000/svg">
<rect width="40" height="40" rx="8" fill="#E6EBF2"/>
<path d="M25.0986 14.9892C21.4542 11.4925 18.5416 11.2553 17.8758 11.2505L11.0786 27.7952C10.9485 28.1118 11.079 28.3916 11.2449 28.5482C11.4107 28.7048 11.7047 28.8257 12.0321 28.6958L29.0334 21.9621C29.0186 21.3171 28.7337 18.4769 25.0986 14.9892Z" stroke="#0A2533" stroke-width="1.5" stroke-linejoin="round"/>
<path d="M25.1785 23.0984C25.0736 22.7302 24.8494 22.3882 24.6296 22.055C24.4184 21.7347 24.2187 21.4323 24.1338 21.1265C24.0507 20.8286 24.0668 20.476 24.0838 20.103C24.1086 19.5598 24.134 18.9981 23.8503 18.5274C23.5789 18.0768 23.0706 17.8214 22.5793 17.5741C22.239 17.4028 21.8869 17.2257 21.645 16.9938C21.4033 16.7617 21.2187 16.4241 21.0402 16.0974C20.7824 15.6258 20.516 15.138 20.0466 14.8778C19.5562 14.6059 18.9711 14.6303 18.4045 14.6538C18.0154 14.6699 17.6482 14.6853 17.3377 14.6059C17.019 14.5244 16.7036 14.3328 16.37 14.1301" stroke="#0A2533" stroke-width="1.5"/>
<path d="M19 17.5C19 17.7761 18.7761 18 18.5 18C18.2239 18 18 17.7761 18 17.5C18 17.2239 18.2239 17 18.5 17C18.7761 17 19 17.2239 19 17.5Z" stroke="#0A2533" stroke-width="1.5"/>
<path d="M22.3321 22.3248C22.3321 22.6009 22.1082 22.8248 21.8321 22.8248C21.556 22.8248 21.3321 22.6009 21.3321 22.3248C21.3321 22.0486 21.556 21.8248 21.8321 21.8248C22.1082 21.8248 22.3321 22.0486 22.3321 22.3248Z" stroke="#0A2533" stroke-width="1.5"/>
<path d="M19.2945 22.5983C19.2945 22.8745 19.0706 23.0983 18.7945 23.0983C18.5184 23.0983 18.2945 22.8745 18.2945 22.5983C18.2945 22.3222 18.5184 22.0983 18.7945 22.0983C19.0706 22.0983 19.2945 22.3222 19.2945 22.5983Z" stroke="#0A2533" stroke-width="1.5"/>
<path d="M15.37 25.0854C15.37 25.3615 15.1461 25.5854 14.87 25.5854C14.5939 25.5854 14.37 25.3615 14.37 25.0854C14.37 24.8092 14.5939 24.5854 14.87 24.5854C15.1461 24.5854 15.37 24.8092 15.37 25.0854Z" stroke="#0A2533" stroke-width="1.5"/>
<path d="M16.37 20.9752C16.37 21.2514 16.1461 21.4752 15.87 21.4752C15.5939 21.4752 15.37 21.2514 15.37 20.9752C15.37 20.6991 15.5939 20.4752 15.87 20.4752C16.1461 20.4752 16.37 20.6991 16.37 20.9752Z" stroke="#0A2533" stroke-width="1.5"/>
</svg>
