<svg width="40" height="40" viewBox="0 0 40 40" fill="none" xmlns="http://www.w3.org/2000/svg">
<rect width="40" height="40" rx="8" fill="#E6EBF2"/>
<path d="M25.9591 28.0374C24.3671 29.6147 22.2532 30.4804 20 30.4804C17.7468 30.4804 15.633 29.6147 14.0409 28.0374C12.4548 26.4632 11.5802 24.376 11.5802 22.1554C11.5802 20.8658 11.8707 19.6295 12.4429 18.4792C13.0003 17.3555 13.8304 16.3505 14.8384 15.5767C15.4813 15.0851 16.0644 14.52 16.5758 13.8927C17.3169 12.9885 17.898 11.9805 18.3012 10.8984C18.4666 10.452 18.5868 9.99015 18.66 9.51978C19.3745 10.1779 19.9733 10.9725 20.4744 11.9034C21.4646 13.7593 21.9212 15.4107 21.8322 16.816C21.811 17.1469 21.865 17.4784 21.9903 17.7855C22.1156 18.0926 22.3089 18.3672 22.5556 18.5889C22.7694 18.782 23.0195 18.9307 23.2913 19.0264C23.563 19.1221 23.8511 19.1628 24.1388 19.1462C24.7228 19.1166 25.2594 18.8587 25.6508 18.4228C26.0451 17.9811 26.386 17.5305 26.6706 17.0709C27.0857 17.6016 27.4326 18.1797 27.7083 18.8023C28.1797 19.8637 28.4198 20.9933 28.4198 22.1554C28.4198 24.376 27.5452 26.4661 25.9591 28.0374Z" stroke="#0A2533" stroke-width="1.5" stroke-linejoin="round"/>
<path d="M21.6455 26.3091C21.0066 26.9422 20.1582 27.2896 19.2539 27.2896C18.3496 27.2896 17.5012 26.9422 16.8622 26.3091C16.2256 25.6773 15.8746 24.8397 15.8746 23.9484C15.8746 23.4308 15.9912 22.9347 16.2209 22.473C16.4446 22.022 16.7777 21.6187 17.1823 21.3081C17.4403 21.1108 17.6743 20.884 17.8796 20.6323C18.177 20.2693 18.4103 19.8648 18.5721 19.4305C18.6385 19.2513 18.6867 19.066 18.7161 18.8772C19.0028 19.1413 19.2432 19.4602 19.4443 19.8339C19.8417 20.5787 20.0249 21.2415 19.9892 21.8055C19.9807 21.9383 20.0024 22.0713 20.0527 22.1946C20.103 22.3178 20.1805 22.4281 20.2795 22.517C20.3654 22.5945 20.4657 22.6542 20.5748 22.6926C20.6839 22.731 20.7995 22.7474 20.9149 22.7407C21.1493 22.7288 21.3647 22.6253 21.5218 22.4504C21.68 22.2731 21.8169 22.0922 21.9311 21.9078C22.0977 22.1208 22.2369 22.3528 22.3475 22.6027C22.5367 23.0287 22.6331 23.482 22.6331 23.9484C22.6331 24.8397 22.2821 25.6785 21.6455 26.3091Z" stroke="#0A2533" stroke-width="1.5" stroke-linejoin="round"/>
</svg>
