<svg width="40" height="40" viewBox="0 0 40 40" fill="none" xmlns="http://www.w3.org/2000/svg">
<rect width="40" height="40" rx="8" fill="#E6EBF2"/>
<path d="M28.1459 17.5781C27.0717 19.0391 26.4272 20.5859 26.2553 22.1758C25.9545 24.668 24.5795 26.8164 22.4311 28.1055C21.185 28.8359 19.767 29.2227 18.349 29.2227C15.4272 29.2227 12.7201 27.6328 11.3022 25.0547C9.28263 21.4023 10.5287 16.6328 14.0522 14.4414C14.9545 13.8828 15.8998 13.4961 16.9311 13.3242C18.2631 13.1094 19.5951 12.5078 20.9701 11.5195C21.099 11.4336 21.2279 11.3477 21.3568 11.2617C22.3881 10.7031 23.5483 10.3594 24.7084 10.3594C26.4272 10.3594 27.9311 11.1328 28.6615 12.4219C29.5639 13.9258 29.349 15.9023 28.1459 17.5781Z" stroke="#0A2533" stroke-width="1.5"/>
<path d="M19.1655 18.3945C18.9506 18.3515 18.6928 18.4804 18.6498 18.6952C18.6069 18.9101 18.7358 19.1679 18.9506 19.2109C19.9819 19.4687 20.6264 20.5429 20.3686 21.5742C20.3256 21.789 20.4545 22.0468 20.6694 22.0898C20.7123 22.0898 20.7553 22.0898 20.7553 22.0898C20.9272 22.0898 21.142 21.9609 21.185 21.746C21.6147 20.3281 20.6694 18.7812 19.1655 18.3945Z" fill="#0A2533"/>
<circle cx="18.4994" cy="21.1231" r="4.7837" stroke="#0A2533" stroke-width="1.5"/>
</svg>
